# xmcd CD database file
#
# Track frame offsets:
#	150
#	16260
#	24019
#	38775
#	61081
#	76717
#	87741
#	101202
#	114743
#	124773
#	136009
#	148614
#	162517
#	174525
#	187474
#	201998
#
# Disc length: 2889 seconds
#
# Revision: 0
# Processed by: cddbd v1.5.2PL0 Copyright (c) Steve Scherf et al.
# Submitted via: CDex 1.51
#
DISCID=db0b4710
DTITLE=Glen Miller - Glen Miller
DYEAR=1900
DGENRE=Jazz
TTITLE0=American Patrol
TTITLE1=Fools Rush In
TTITLE2=Pennsylvania 6-5000
TTITLE3=At Last
TTITLE4=Tuxedo Junction
TTITLE5=The Slumber Song
TTITLE6=Here We Go Again
TTITLE7=Keep 'Em Flying
TTITLE8=Danny Boy (Londonderry Air)
TTITLE9=Sun Valley Jump
TTITLE10=Imagination
TTITLE11=Elmer's Tune
TTITLE12=Runnin' Wild
TTITLE13=Stairway to the Stars
TTITLE14=Pagan Love Song
TTITLE15=Moonlight Cocktail
EXTD=
EXTT0=
EXTT1=
EXTT2=
EXTT3=
EXTT4=
EXTT5=
EXTT6=
EXTT7=
EXTT8=
EXTT9=
EXTT10=
EXTT11=
EXTT12=
EXTT13=
EXTT14=
EXTT15=
PLAYORDER=
